<?xml version="1.0" standalone="no"?>
<!DOCTYPE svg PUBLIC "-//W3C//DTD SVG 1.1//EN" "http://www.w3.org/Graphics/SVG/1.1/DTD/svg11.dtd" >
<svg xmlns="http://www.w3.org/2000/svg">
    <metadata>Generated by IcoMoon</metadata>
    <defs>
        <font id="heyui" horiz-adv-x="1024">
            <font-face units-per-em="1024" ascent="960" descent="-64" />
            <missing-glyph horiz-adv-x="1024" />
            <glyph unicode="&#x20;" horiz-adv-x="512" d="" />
            <glyph unicode="&#xe114;" glyph-name="plus" d="M0 448q0-21.2 15-36.2t36.2-15h409.6v-409.6q0-21.2 15-36.2t36.2-15 36.2 15 15 36.2v409.6h409.6q21.2 0 36.2 15t15 36.2-15 36.2-36.2 15h-409.6v409.6q0 21.2-15 36.2t-36.2 15-36.2-15-15-36.2v-409.6h-409.6q-21.2 0-36.2-15t-15-36.2z" />
            <glyph unicode="&#xe115;" glyph-name="minus" d="M51.2 499.2h921.6q21.2 0 36.2-15t15-36.2-15-36.2-36.2-15h-921.6q-21.2 0-36.2 15t-15 36.2 15 36.2 36.2 15z" />
            <glyph unicode="&#xe116;" glyph-name="check" d="M972.801 806.4q22 0 36.6-14.6t14.6-36.6q0-21.6-14.8-36.4l-614.4-614.4q-14.8-14.8-36.4-14.8t-36.4 14.8l-307.2 307.2q-14.8 14.8-14.8 36.4 0 22 14.6 36.6t36.6 14.6q21.6 0 36.4-14.8l270.801-271.2 578 578.4q14.8 14.8 36.4 14.8z" />
            <glyph unicode="&#xe122;" glyph-name="inbox" d="M512 959.999q19.273 0 32.909-13.636t13.636-32.909v-539.272l153.090 153.455q13.454 13.454 33.091 13.454 20 0 33.273-13.273t13.273-33.273q0-19.636-13.454-33.091l-232.727-232.727q-13.454-13.454-33.091-13.454t-33.091 13.454l-232.727 232.727q-13.454 14.182-13.454 33.091 0 19.273 13.636 32.909t32.909 13.636q19.636 0 33.091-13.454l153.090-153.455v539.272q0 19.273 13.636 32.909t32.909 13.636zM977.455 308.364q19.273 0 32.909-13.636t13.636-32.909v-186.182q0-58.181-40.364-98.545-41.091-41.091-98.182-41.091h-745.818q-57.091 0-98.909 40.727-40.727 41.818-40.727 98.909v186.182q0 19.273 13.636 32.909t32.909 13.636 32.909-13.636 13.636-32.909v-186.182q0-19.273 13.636-32.909t32.909-13.636h745.818q18.909 0 32.182 13.636t13.273 32.909v186.182q0 19.273 13.636 32.909t32.909 13.636z" />
            <glyph unicode="&#xe123;" glyph-name="outbox" d="M512 959.999q19.636 0 33.091-13.454l232.727-232.727q13.454-13.454 13.454-33.091 0-20-13.273-33.273t-33.273-13.273q-19.636 0-33.091 13.454l-153.090 153.455v-539.272q0-19.273-13.636-32.909t-32.909-13.636-32.909 13.636-13.636 32.909v539.272l-153.090-153.455q-14.182-13.454-33.091-13.454-19.273 0-32.909 13.636t-13.636 32.909q0 18.909 13.454 33.091l232.727 232.727q13.454 13.454 33.091 13.454zM977.455 308.363q19.273 0 32.909-13.636t13.636-32.909v-186.182q0-58.181-40.364-98.545-41.091-41.091-98.182-41.091h-745.818q-57.091 0-98.909 40.727-40.727 41.818-40.727 98.909v186.182q0 19.273 13.636 32.909t32.909 13.636 32.909-13.636 13.636-32.909v-186.182q0-19.273 13.636-32.909t32.909-13.636h745.818q18.909 0 32.182 13.636t13.273 32.909v186.182q0 19.273 13.636 32.909t32.909 13.636z" />
            <glyph unicode="&#xe900;" glyph-name="help" d="M512 960q-139.008 0-256.992-68.512t-186.496-186.496-68.512-256.992 68.512-256.992 186.496-186.496 256.992-68.512 256.992 68.512 186.496 186.496 68.512 256.992-68.512 256.992-186.496 186.496-256.992 68.512zM823.008 136.992q-60.992-60.992-140-94.016-80.992-35.008-171.008-35.008t-171.008 34.016q-79.008 34.016-140 95.008t-94.016 140q-35.008 80.992-35.008 171.008t34.016 171.008q34.016 79.008 95.008 140t140 94.016q80.992 35.008 171.008 35.008t171.008-34.016q79.008-34.016 140-95.008t94.016-140q35.008-80.992 35.008-171.008t-34.016-171.008q-34.016-79.008-95.008-140zM507.008 296h-4q-15.008 2.016-24.512 13.504t-7.488 26.496q3.008 32.992 23.488 63.008t58.496 67.008q30.016 30.016 45.504 52t18.016 31.488 2.496 23.488q2.016 39.008-26.016 68.992-32.992 35.008-80.992 35.008-44.992 0-76.512-32t-31.488-76q0-15.008-10.496-25.504t-25.504-10.496-25.504 10.496-10.496 25.504q0 74.016 52.512 126.496t126.496 53.504q80 0 134.016-56.992 50.016-52.992 46.016-123.008-2.016-36.992-19.488-70.016t-67.488-84q-59.008-58.016-60.992-86.016-2.016-14.016-12-23.488t-24-9.504zM462.016 191.008q0 18.016 12.992 30.496t30.496 12.512 30.496-12.512 12.992-30.496-12.992-30.496-30.496-12.512-30.496 12.512-12.992 30.496z" />
            <glyph unicode="&#xe901;" glyph-name="info" d="M40.385 249.024c26.944-62.272 63.552-116.544 109.951-162.88 46.336-46.272 100.544-82.88 162.496-109.824 62.016-26.88 128.385-40.321 199.168-40.321s137.152 13.441 199.168 40.321c62.016 26.944 116.16 63.552 162.56 109.824 46.336 46.336 82.944 100.608 109.888 162.88s40.384 128.704 40.384 199.424c0 70.72-13.441 137.024-40.384 198.976s-63.552 116.095-109.888 162.368c-46.4 46.336-100.544 82.944-162.56 109.824-62.016 26.944-128.385 40.384-199.168 40.384-70.72 0-137.152-13.441-199.168-40.384-61.952-26.88-116.16-63.488-162.496-109.824-46.336-46.272-83.008-100.416-109.888-162.368-26.944-61.952-40.448-128.256-40.448-198.976s13.441-137.152 40.384-199.424v0zM512.001 778.688c32 0 57.983-25.92 57.983-57.856 0-32-25.983-57.92-57.983-57.92s-57.92 25.92-57.92 57.92c0 32 25.92 57.856 57.92 57.856v0zM454.081 537.985c0 32 25.92 57.92 57.92 57.92s57.983-25.92 57.983-57.92v-362.816c0-32-25.983-57.92-57.983-57.92s-57.92 25.92-57.92 57.92v362.816z" />
            <glyph unicode="&#xe902;" glyph-name="refresh" d="M767.157 895.782h159.719c17.689 0 32 14.344 32 32.062 0 17.689-14.309 32.031-32 32.031h-320.001v-320.593c0-17.719 14.312-32.092 32-32.092s32 14.374 32 32.092v227.688c162.47-65.282 289.125-227.75 289.125-417.845 0-247.531-200.407-448.875-447.439-448.875s-448.844 201.341-448.844 448.875c0 225.687 159.157 415.376 383.158 446.656h32c17.687 0 31.999 14.344 31.999 32.062 0 17.689-14.312 32.031-31.999 32.031h-32c-256.001-31.689-446.876-249.657-446.876-510.751 0-282.874 229.686-512.998 512-512.998s512 230.124 512 512.998c0 187.187-108.344 355.125-256.843 446.656z" />
            <glyph unicode="&#xe903;" glyph-name="warn" d="M983.615 646.976c-26.944 62.272-63.552 116.544-109.951 162.88-46.336 46.272-100.544 82.88-162.496 109.824-62.016 26.88-128.385 40.321-199.168 40.321s-137.152-13.441-199.168-40.321c-62.016-26.944-116.16-63.552-162.56-109.824-46.336-46.336-82.944-100.608-109.888-162.88s-40.384-128.704-40.384-199.424c0-70.72 13.441-137.024 40.384-198.976s63.552-116.095 109.888-162.368c46.4-46.336 100.544-82.944 162.56-109.824 62.016-26.944 128.385-40.384 199.168-40.384 70.72 0 137.152 13.441 199.168 40.384 61.952 26.88 116.16 63.488 162.496 109.824 46.336 46.272 83.008 100.416 109.888 162.368 26.944 61.952 40.448 128.256 40.448 198.976s-13.441 137.152-40.384 199.424v0zM511.999 117.312c-32 0-57.983 25.92-57.983 57.856 0 32 25.983 57.92 57.983 57.92s57.92-25.92 57.92-57.92c0-32-25.92-57.856-57.92-57.856v0zM569.919 358.015c0-32-25.92-57.92-57.92-57.92s-57.983 25.92-57.983 57.92v362.816c0 32 25.983 57.92 57.983 57.92s57.92-25.92 57.92-57.92v-362.816z" />
            <glyph unicode="&#xe904;" glyph-name="success" d="M512 960c-282.743 0-511.973-229.226-511.973-512.027 0-282.717 229.226-511.973 511.973-511.973 282.77 0 511.973 229.253 511.973 511.973 0 282.799-229.226 512.027-511.973 512.027v0zM805.658 580.817l-331.11-331.138c-15.28-15.224-38.56-17.65-56.317-7.197-3.286 1.967-6.387 4.339-9.217 7.197 0 0 0 0 0 0l-190.643 190.613c-18.107 18.084-18.107 47.427 0 65.479 18.107 18.158 47.427 18.158 65.535 0l157.877-157.796 298.346 298.374c18.107 18.084 47.452 18.084 65.535 0s18.084-47.452 0-65.535v0z" />
            <glyph unicode="&#xe905;" glyph-name="error" d="M511.999 960c-282.744 0-511.999-229.252-511.999-512s229.254-512 511.999-512c282.832 0 512.002 229.25 512.002 512s-229.168 512-512.002 512v0zM798.249 222.164c16.58-16.663 16.58-43.664 0-60.372-8.417-8.294-19.33-12.503-30.249-12.503s-21.748 4.207-30.165 12.503l-225.791 225.803-225.793-225.802c-8.415-8.294-19.334-12.503-30.249-12.503-10.919 0-21.747 4.207-30.172 12.503-16.58 16.706-16.58 43.709 0 60.372l225.817 225.834-225.81 225.835c-16.588 16.664-16.588 43.666 0 60.372 16.664 16.63 43.664 16.63 60.414 0l225.793-225.81 225.793 225.81c16.663 16.63 43.665 16.63 60.415 0 16.587-16.706 16.587-43.707 0-60.372l-225.818-225.835 225.817-225.835z" />
            <glyph unicode="&#xe906;" glyph-name="close" d="M578.060 447.995l355.072 355.075c15.97 15.962 14.121 43.688-4.131 61.93-18.237 18.237-45.962 20.095-61.93 4.129l-355.072-355.075-355.072 355.075c-15.97 15.964-43.689 14.121-61.93-4.129-18.245-18.243-20.101-45.975-4.13-61.93l355.072-355.075-355.072-355.072c-15.964-15.958-14.121-43.692 4.128-61.93 18.233-18.237 45.978-20.085 61.93-4.13l355.072 355.072 355.072-355.072c15.957-15.957 43.697-14.118 61.93 4.13 18.248 18.239 20.088 45.978 4.128 61.932l-355.072 355.072z" />
            <glyph unicode="&#xe907;" glyph-name="down" d="M12.523 734.596c16.773 16.642 43.918 16.642 60.602 0l438.906-481.843 438.82 481.843c16.729 16.642 43.874 16.642 60.602 0 16.729-17.072 16.729-44.384 0-61.033l-467.033-512.573c-8.917-8.962-20.743-12.801-32.396-11.95-11.696-0.852-23.516 2.99-32.477 11.95l-467.033 512.573c-16.686 16.642-16.686 43.961 0 61.033z" />
            <glyph unicode="&#xe908;" glyph-name="home" d="M180.521-10.503c-25.354 0-53.080 10.398-74.26 27.723-22.736 18.699-35.193 42.827-35.193 67.9v434.886l-26.473-21.623c-4.718-3.747-10.398-5.684-16.203-5.684-8.051 0-15.523 3.747-20.642 10.126-9.143 11.501-7.059 28.275 4.445 37.42l437.502 345.76c16.776 13.32 38.94 20.642 62.371 20.642s45.452-7.347 62.371-20.642l437.502-345.76c5.539-4.445 9.003-10.683 9.834-17.727s-1.102-14.14-5.684-19.827c-5.138-6.515-12.746-10.126-21.064-10.126-6.104 0-12.057 2.082-16.776 5.684l-25.354 19.261v-432.392c0-58.205-32.14-95.765-81.908-95.765h-690.426zM608.336 42.856h262.612c18.998 0 28.551 14.266 28.551 42.407v474.923l-359.065 284.103c-7.612 5.957-17.884 9.286-29.101 9.286s-21.623-3.324-29.101-9.286l-357.822-282.567v-476.452c0-21.755 31.588-42.407 56.123-42.407h236.696v7.906c0 1.395-0.279 2.639-0.968 3.888v187.501c0 36.308 29.935 75.533 95.765 75.533s95.765-39.088 95.765-75.533v-190.005c0-1.395 0.279-2.495 0.687-3.324v-5.957zM512.018 264.304c-19.543 0-42.407-5.837-42.407-22.176v-199.282h84.813v199.282c-0.129 16.353-22.864 22.176-42.407 22.176z" />
            <glyph unicode="&#xe909;" glyph-name="left" d="M798.595 947.477c16.642-16.773 16.642-43.918 0-60.602l-481.843-438.906 481.843-438.82c16.642-16.729 16.642-43.874 0-60.602-17.072-16.729-44.384-16.729-61.033 0l-512.573 467.033c-8.962 8.917-12.801 20.743-11.95 32.396-0.852 11.696 2.99 23.516 11.95 32.477l512.573 467.033c16.642 16.686 43.961 16.686 61.033 0z" />
            <glyph unicode="&#xe90a;" glyph-name="top" d="M1011.477 161.405c-16.773-16.642-43.918-16.642-60.602 0l-438.906 481.843-438.82-481.843c-16.729-16.642-43.874-16.642-60.602 0-16.729 17.072-16.729 44.384 0 61.033l467.033 512.573c8.917 8.962 20.743 12.801 32.396 11.95 11.696 0.852 23.516-2.99 32.477-11.95l467.033-512.573c16.686-16.642 16.686-43.961 0-61.033z" />
            <glyph unicode="&#xe90b;" glyph-name="user" d="M1023.27-19.383c-17.554 207.726-159.451 379.611-351.817 441.783 80.457 51.931 133.851 141.897 133.851 245.029 0 161.646-131.657 292.571-293.303 292.571-162.377 0-293.303-130.926-293.303-292.571 0-103.131 53.394-193.097 133.851-245.029-192.366-62.171-334.263-234.057-351.817-441.783 0-3.657-0.731-6.583 0-11.703 1.463-18.286 17.554-32.914 35.84-32.914 20.48 0 36.571 16.823 36.571 36.571 19.017 226.011 208.457 402.286 438.857 402.286s419.109-176.274 438.857-402.286c0-19.749 16.091-36.571 36.571-36.571 18.286 0 34.377 14.629 35.84 32.914 0.731 5.12 0 8.046 0 11.703zM291.841 667.429c0 121.417 98.743 219.429 220.16 219.429s220.16-98.011 220.16-219.429c0-121.417-98.743-219.429-220.16-219.429s-220.16 98.011-220.16 219.429z" />
            <glyph unicode="&#xe90c;" glyph-name="task" d="M824.597 523.499l-340.784-408.907-248.625 213.126 41.627 48.567 199.381-170.884 299.211 359.097 49.19-40.999zM128.007 177.071c0-97.637 72.712-177.077 162.114-177.077h443.759c89.402 0 162.118 79.441 162.118 177.077v445.86c0 86.56-57.207 158.687-132.473 173.961 4.106-29.795 4.483-53.824 4.483-60.892h32v-64.006h-576.009v64.006h32.008c0 7.068 0.363 31.097 4.48 60.892-75.274-15.274-132.481-87.401-132.481-173.961v-445.86zM959.998 622.931v-445.86c0-132.942-101.434-241.071-226.117-241.071h-443.759c-124.687 0-226.121 108.13-226.121 241.071v445.86c0 127.744 93.733 232.28 211.679 240.282 17.030 50.593 48.735 96.787 108.327 96.787h256c59.586 0 91.289-46.194 108.319-96.787 117.947-8.002 211.673-112.538 211.673-240.282zM704.001 735.998c-0.109 52.232-15.88 159.996-63.995 159.996h-256c-48.123 0-63.9-107.764-64.006-159.996h384.001z" />
            <glyph unicode="&#xe90d;" glyph-name="message" d="M511.997 64.018c-32.748 0-64.657 2.969-95.704 8.093l-224.293-136.088v226.554c-116.954 82.12-192 208.021-192 349.419 0 247.413 229.234 447.98 512 447.98 282.749 0 512-200.57 512-447.98-0.001-247.425-229.253-447.978-512.002-447.978zM511.997 895.98c-247.421 0-447.998-171.93-447.998-383.983 0-130.118 75.703-244.925 191.202-314.359l-2.016-148.433 150.639 90.558c34.703-7.405 70.797-11.751 108.172-11.751 247.438 0 447.997 171.9 447.997 383.982 0 212.055-200.559 383.985-447.998 383.985zM767.997 447.999c-35.345 0-63.999 28.639-63.999 63.995 0 35.345 28.655 63.998 63.999 63.998 35.346 0 63.999-28.655 63.999-63.998 0.001-35.357-28.655-63.995-63.999-63.995zM511.997 447.999c-35.345 0-63.999 28.639-63.999 63.995 0 35.345 28.657 63.998 63.999 63.998 35.346 0 64-28.655 64-63.998 0.001-35.357-28.654-63.995-64-63.995zM255.999 447.999c-35.345 0-63.999 28.639-63.999 63.995 0 35.345 28.655 63.998 63.999 63.998s63.998-28.655 63.998-63.998c0-35.357-28.654-63.995-63.998-63.995z" />
            <glyph unicode="&#xe90e;" glyph-name="fullscreen" d="M661.314 558.931l236.179 235.365-0.807-133.378c-0.323-11.062 8.617-20.817 19.679-20.49h14.155c11.062 0.324 20.327 6.832 20.49 18.057l0.651 198.605c0 0.163 0.323 10.574 0.323 10.574 0.163 5.527-1.138 10.574-4.717 14.155s-8.452 5.857-14.155 5.692l-10.089-0.163c-0.162 0-0.319 0-0.484-0.163l-196.981 0.815c-11.062-0.324-20.327-9.435-20.49-20.655v-14.155c1.626-13.172 12.035-20.817 23.096-20.49l129.801-0.324-235.527-234.547c-10.737-10.737-10.737-28.134 0-38.87 10.737-10.9 28.136-10.9 38.876 0h-0.006zM363.652 337.067l-236.339-234.55 0.812 132.735c0.324 11.058-8.622 20.817-19.683 20.49h-14.962c-11.062-0.324-20.327-6.835-20.49-18.060l-0.651-198.766c0-0.163-0.323-10.574-0.323-10.574-0.163-5.531 1.138-10.574 4.71-14.155 3.58-3.58 8.459-5.857 14.155-5.692l10.089 0.163c0.163 0 0.324 0 0.488 0.163l197.796-0.814c11.058 0.324 20.327 9.432 20.49 20.655v14.153c-1.626 13.172-12.037 20.817-23.102 20.49l-129.802 0.324 235.366 234.545c10.737 10.737 10.737 28.139 0 38.876-10.568 10.9-27.805 10.9-38.545-0.001v0zM951.662 38.921l-0.487 198.766c-0.324 11.064-9.435 17.733-20.492 18.060h-14.153c-11.064 0.319-19.844-9.435-19.684-20.49l0.814-133.384-236.341 235.205c-10.737 10.737-28.136 10.737-38.876 0-10.732-10.736-10.732-28.136 0-38.876l235.37-234.545-129.801-0.324c-11.062 0.324-21.312-7.483-23.1-20.49v-14.155c0.323-11.062 9.435-20.327 20.49-20.655l196.981 0.814c0.162 0 0.323-0.163 0.487-0.163l10.089-0.163c5.527-0.162 10.574 1.952 14.153 5.692 3.58 3.58 4.876 8.615 4.712 14.155 0 0-0.163 10.414-0.163 10.574h0.008zM167.009 832.359l129.801 0.324c11.058-0.324 21.309 7.483 23.096 20.49v14.156c-0.324 11.062-9.432 20.327-20.49 20.655l-197.954-0.814c-0.163 0-0.324 0.163-0.488 0.163l-10.087 0.163c-5.531 0.162-10.574-1.952-14.155-5.692-3.58-3.58-4.881-8.615-4.71-14.155 0 0 0.323-10.414 0.323-10.574l0.484-198.766c0.163-11.059 9.435-17.733 20.49-18.053h14.968c11.062-0.323 19.842 9.432 19.677 20.49l-0.649 132.732 236.184-234.712c10.732-10.737 28.133-10.737 38.869 0s10.737 28.136 0 38.876l-235.366 234.71z" />
            <glyph unicode="&#xe90f;" glyph-name="menu" d="M120.474 168.015h-90.357c-16.615 0-30.117-13.513-30.117-30.184 0-16.678 13.502-30.196 30.117-30.196h90.355c16.616 0 30.118 13.521 30.118 30.196 0.001 16.673-13.501 30.184-30.116 30.184v0 0zM993.882 168.015h-662.586c-16.62 0-30.123-13.513-30.123-30.184 0-16.678 13.505-30.196 30.123-30.196h662.586c16.616 0 30.118 13.521 30.118 30.196 0.001 16.673-13.502 30.184-30.118 30.184v0 0zM120.474 478.192h-90.357c-16.615 0-30.117-13.52-30.117-30.194 0-16.672 13.502-30.189 30.117-30.189h90.355c16.616 0 30.118 13.518 30.118 30.189 0.001 16.675-13.501 30.194-30.116 30.194v0 0zM993.882 478.192h-662.586c-16.62 0-30.123-13.52-30.123-30.194 0-16.672 13.505-30.189 30.123-30.189h662.586c16.616 0 30.118 13.518 30.118 30.189 0.001 16.675-13.502 30.194-30.118 30.194v0 0zM120.474 788.362h-90.357c-16.615 0-30.117-13.521-30.117-30.193 0-16.669 13.502-30.189 30.117-30.189h90.355c16.616 0 30.118 13.518 30.118 30.189 0.001 16.672-13.501 30.193-30.116 30.193v0 0zM331.295 727.982h662.586c16.616 0 30.118 13.518 30.118 30.189s-13.502 30.193-30.118 30.193h-662.586c-16.62 0-30.123-13.522-30.123-30.193s13.505-30.189 30.123-30.189v0 0z" />
            <glyph unicode="&#xe910;" glyph-name="right" d="M225.405-51.477c-16.642 16.773-16.642 43.918 0 60.602l481.843 438.906-481.843 438.82c-16.642 16.729-16.642 43.874 0 60.602 17.072 16.729 44.384 16.729 61.033 0l512.573-467.033c8.962-8.917 12.801-20.743 11.95-32.396 0.852-11.696-2.99-23.516-11.95-32.477l-512.573-467.033c-16.642-16.686-43.961-16.686-61.033 0z" />
            <glyph unicode="&#xe911;" glyph-name="link" d="M266.788-64c-67.404-0.044-134.765 25.593-186.082 76.867l-3.895 3.939c-49.381 49.316-76.668 115.443-76.668 185.928s27.287 136.613 76.823 186.17l93.217 87.253c16.152 15.162 41.613 14.348 56.819-1.892 15.162-16.196 14.325-41.658-1.892-56.841l-92.248-86.329c-33.405-33.427-52.285-79.353-52.285-128.382 0-49.007 18.881-94.911 53.232-129.219l3.895-3.917c71.145-71.035 187.050-71.035 258.349 0.154l200.869 200.957c72.972 73.125 76.25 184.409 7.328 253.353l-3.697 3.697c-5.128 5.105-21.521 17.825-36.948 22.204-21.346 6.073-33.713 28.343-27.64 49.689 6.117 21.346 28.366 33.691 49.711 27.661 32.085-9.155 60.186-31.138 71.739-42.691l3.697-3.697c100.742-100.831 97.53-262.024-7.306-367.058l-200.913-200.98c-51.296-51.273-118.722-76.867-186.103-76.867zM393.851 314.677c-10.277 0-20.597 3.917-28.41 11.773-101.645 101.689-99.642 251.241 4.775 355.615l200.892 200.957c102.548 102.592 269.484 102.68 372.185 0l3.807-3.851c49.469-49.448 76.756-115.531 76.756-185.994-0.044-70.463-27.31-136.59-76.867-186.103l-94.428-87.165c-16.24-15.052-41.746-14.084-56.841 2.266-15.030 16.328-14.018 41.767 2.31 56.841l93.261 86.065c33.162 33.229 52.132 79.133 52.132 128.14 0 48.963-18.903 94.846-53.276 129.219l-3.807 3.83c-71.145 71.123-187.094 71.189-258.415-0.088l-200.869-200.957c-72.619-72.598-74.578-172.064-4.775-241.911 15.69-15.69 15.69-41.129 0-56.841-7.834-7.878-18.133-11.795-28.431-11.795z" />
            <glyph unicode="&#xe912;" glyph-name="calendar" d="M349.085 331.619h-93.107v-93.026h93.107v93.026zM349.085 168.762h-93.107v-93.106h93.107v93.106zM349.085 494.553h-93.107v-93.107h93.107v93.107zM209.426 168.762h-93.065v-93.106h93.065v93.106zM977.466 634.13h-930.892v139.66c0 25.677 20.835 46.552 46.512 46.552h93.065v-69.828c0-12.798 10.438-23.276 23.276-23.276s23.276 10.478 23.276 23.276v69.828h558.554v-69.828c0-12.798 10.397-23.276 23.275-23.276 12.84 0 23.278 10.478 23.278 23.276v69.828h93.105c25.675 0 46.551-20.874 46.551-46.552v-139.66h-0.001zM977.466 29.104c0-25.675-20.876-46.552-46.551-46.552h-837.83c-25.677 0-46.512 20.877-46.512 46.552v558.474h930.893v-558.474h-0.001zM930.915 866.896h-93.105v69.828c0 12.879-10.438 23.276-23.278 23.276-12.877 0-23.275-10.396-23.275-23.276v-69.828h-558.553v69.828c0 12.879-10.438 23.276-23.276 23.276s-23.276-10.396-23.276-23.276v-69.828h-93.065c-51.392 0-93.067-41.674-93.067-93.106v-744.685c0-51.429 41.675-93.105 93.067-93.105h837.83c51.391 0 93.067 41.675 93.067 93.105v744.685c0 51.432-41.676 93.106-93.067 93.106v0zM209.426 494.553h-93.065v-93.107h93.065v93.107zM209.426 331.619h-93.065v-93.026h93.065v93.026zM488.703 168.762h-93.107v-93.106h93.107v93.106zM488.703 494.553h-93.107v-93.107h93.107v93.107zM488.703 331.619h-93.107v-93.026h93.107v93.026zM907.635 331.619h-93.104v-93.026h93.104v93.026zM767.979 331.619h-93.065v-93.026h93.065v93.026zM907.635 494.553h-93.104v-93.107h93.104v93.107zM767.979 494.553h-93.065v-93.107h93.065v93.107zM628.36 168.762h-93.104v-93.106h93.104v93.106zM628.36 494.553h-93.104v-93.107h93.104v93.107zM628.36 331.619h-93.104v-93.026h93.104v93.026z" />
            <glyph unicode="&#xe913;" glyph-name="upload" d="M211.485 537.063c-24.149 0-39.734 15.584-39.734 39.734 0 166.728 130.6 297.328 297.328 297.328 127.251 0 241.623-83.654 284.641-208.2 0.625-2.835 0.983-6.090 0.983-9.428 0-9.121-2.672-17.619-7.274-24.754l0.109 0.18c-4.871-7.080-12.452-11.992-21.214-13.247l-0.166-0.019c-4.042-1.644-8.73-2.611-13.64-2.64h-0.012c-17.417 0.269-32.269 10.972-38.6 26.123l-0.104 0.281c-26.017 90.995-108.383 152.302-204.787 152.302-0.655 0.007-1.428 0.011-2.203 0.011-119.076 0-215.606-96.53-215.606-215.606 0-0.819 0.005-1.637 0.014-2.454l-0.001 0.125c0-24.149-15.584-39.734-39.734-39.734zM769.626 193.562c-24.085 0-39.669 15.649-39.669 39.798 0 24.085 15.584 39.669 39.669 39.669 96.539 0.147 174.759 78.367 174.906 174.892v0.014c-0.11 96.553-78.353 174.797-174.895 174.906h-0.011c-12.88 0-30.589 0-43.92-4.443-2.244-0.407-4.829-0.641-7.467-0.644h-0.003c-16.872 0-36.385 10.626-39.927 28.271-3.864 19.126 7.148 43.662 27.563 47.719 21.509 4.379 42.889 8.629 63.754 8.629 140.26 0 254.374-114.114 254.374-254.374s-114.114-254.438-254.374-254.438zM211.485 193.562c-24.149 0-39.734 15.649-39.734 39.798 0 24.085 15.584 39.669 39.734 39.669h128.797c24.149 0 39.734-15.584 39.734-39.669 0-24.149-15.584-39.798-39.734-39.798h-128.797zM211.485 193.562c-118.558 0-211.485 92.863-211.485 211.485s92.863 211.485 211.485 211.485c24.149-0.064 39.734-15.649 39.734-39.734s-15.584-39.734-39.734-39.734c-75.217 0-132.017-56.735-132.017-132.017 0-75.217 56.735-131.952 132.017-131.952 24.149 0 39.734-15.584 39.734-39.669 0-24.214-15.584-39.863-39.734-39.863zM512.032 21.875c-24.149 0-39.734 15.584-39.734 39.669v429.345c0 24.149 15.584 39.734 39.734 39.734s39.734-15.584 39.734-39.734v-429.345c0-24.085-15.584-39.669-39.734-39.669zM383.235 322.359c-0.312-0.010-0.678-0.015-1.045-0.015-10.619 0-20.153 4.648-26.677 12.020l-0.032 0.037c-7.301 7.026-11.869 16.847-11.978 27.736v0.020c0 10.239 4.25 20.157 11.914 27.82l128.797 128.797c7.728 7.599 17.581 11.849 27.82 11.849s20.092-4.25 27.82-11.914c7.663-7.728 11.914-17.581 11.914-27.82-0.13-10.893-4.666-20.702-11.905-27.747l-128.806-128.806c-6.631-7.375-16.202-11.991-26.853-11.991-0.34 0-0.679 0.005-1.017 0.014l0.049-0.001zM640.829 322.359c-0.322-0.010-0.7-0.016-1.080-0.016-10.629 0-20.172 4.648-26.707 12.021l-0.032 0.037-128.797 128.797c-7.237 7.062-11.769 16.865-11.914 27.729v0.027c0 10.239 4.25 20.092 11.914 27.82 7.728 7.599 17.581 11.849 27.82 11.849s20.092-4.25 27.82-11.914l128.797-128.797c7.307-7.071 11.874-16.935 11.978-27.865v-0.019c-0.128-10.885-4.692-20.68-11.966-27.679l-0.012-0.012c-6.555-7.375-16.065-11.997-26.656-11.997-0.41 0-0.817 0.007-1.223 0.020l0.059-0.002z" />
            <glyph unicode="&#xe914;" glyph-name="github" d="M512 947.353c-282.752 0-512-229.216-512-512 0-226.208 146.72-418.144 350.144-485.824 25.6-4.736 35.008 11.104 35.008 24.64 0 12.192-0.48 52.544-0.704 95.328-142.464-30.976-172.512 60.416-172.512 60.416-23.296 59.168-56.832 74.912-56.832 74.912-46.464 31.776 3.52 31.136 3.52 31.136 51.392-3.616 78.464-52.768 78.464-52.768 45.664-78.272 119.776-55.648 148.992-42.56 4.576 33.088 17.856 55.68 32.512 68.48-113.728 12.928-233.28 56.864-233.28 253.024 0 55.904 20 101.568 52.768 137.44-5.312 12.896-22.848 64.96 4.96 135.488 0 0 43.008 13.76 140.832-52.48 40.832 11.36 84.64 17.024 128.16 17.248 43.488-0.192 87.328-5.888 128.256-17.248 97.728 66.24 140.64 52.48 140.64 52.48 27.872-70.528 10.336-122.592 5.024-135.488 32.832-35.84 52.704-81.536 52.704-137.44 0-196.64-119.776-239.936-233.792-252.64 18.368-15.904 34.72-47.040 34.72-94.816 0-68.512-0.608-123.648-0.608-140.512 0-13.632 9.216-29.6 35.168-24.576 203.328 67.776 349.856 259.616 349.856 485.76 0 282.784-229.248 512-512 512z" />
            <glyph unicode="&#xe915;" glyph-name="edit" d="M872.431-64h-709.179c-36.71 0-74.921 16.154-103.843 45.075-28.92 28.921-46.076 66.129-46.076 102.84v737.141c0 37.892 17.87 72.927 49.285 97.448 27.55 21.507 63.658 34.012 100.634 34.012h384.886c19.305 0 34.956-15.786 34.956-35.094s-15.652-35.092-34.956-35.092h-384.887c-37.929 0-79.732-24.074-79.732-61.274v-737.143c0-38.329 41.404-77.73 79.732-77.73h709.179c37.199 0 59.162 39.8 59.162 77.73v380.223c0 19.306 15.786 34.956 35.092 34.956s35.094-15.65 35.094-34.956v-380.223c0-36.977-11.449-72.080-32.954-99.632-24.522-31.415-58.501-48.282-96.394-48.282zM498.77 403.828c-11.332 0-22.663 4.323-31.31 12.97-17.291 17.292-17.291 45.324 0 62.616l467.62 467.617c17.292 17.292 45.327 17.292 62.619 0s17.291-45.324 0-62.615l-467.62-467.618c-8.645-8.647-19.978-12.97-31.309-12.97z" />
            <glyph unicode="&#xe916;" glyph-name="location" d="M515.672 960c-209.893 0-387.679-178.785-387.679-390.554 0-221.769 206.037-448.555 344.631-607.945 0.532-0.643 22.922-25.501 50.533-25.501 0.063 0 2.344 0 2.436 0 27.596 0 49.846 24.859 50.408 25.501 130.065 149.517 320.006 396.052 320.006 607.945 0.001 211.77-138.658 390.554-380.335 390.554zM528.533 4.423c-1.143-1.126-2.75-2.391-4.205-3.408-1.452 1.017-3.079 2.282-4.235 3.408l-16.766 19.249c-131.394 150.738-311.334 357.16-311.334 545.773 0 177.018 148.222 326.569 323.676 326.569 218.522 0 316.335-164.003 316.335-326.569 0.001-143.188-102.093-333.301-303.472-565.023zM513.142 766.214c-106.033 0-192.004-85.969-192.004-192.004 0-106.032 85.97-192.005 192.004-192.005 106.032 0 192.003 85.973 192.003 192.005 0 106.035-85.971 192.004-192.003 192.004zM513.142 446.21c-70.58 0-129.473 58.814-129.473 129.407 0 70.58 57.425 128.002 128.002 128.002 70.595 0 128.001-57.423 128.001-128.002 0.002-70.593-55.936-129.407-126.53-129.407z" />
            <glyph unicode="&#xe917;" glyph-name="angle-top" d="M797.707 284.055c-9.588-9.522-25.113-9.522-34.666 0l-251.059 275.619-251.012-275.619c-9.572-9.522-25.097-9.522-34.666 0-9.572 9.759-9.572 25.391 0 34.907l267.14 293.197c5.103 5.119 11.863 7.327 18.532 6.835 6.688 0.484 13.452-1.71 18.575-6.835l267.14-293.197c9.551-9.522 9.551-25.145 0-34.907z" />
            <glyph unicode="&#xe918;" glyph-name="trash" d="M866.461 644.922c-22.055 0-39.385-17.329-39.385-39.385v-511.999c0-43.323-35.446-78.769-78.769-78.769h-78.769v590.768c0 22.055-17.329 39.385-39.385 39.385s-39.385-17.329-39.385-39.385v-590.768h-157.538v590.768c0 22.055-17.329 39.385-39.385 39.385s-39.385-17.329-39.385-39.385v-590.768h-78.769c-43.323 0-78.769 35.446-78.769 78.769v511.999c0 22.055-17.329 39.385-39.385 39.385s-39.385-17.329-39.385-39.385v-511.999c0-86.646 70.892-157.538 157.538-157.538h472.614c86.646 0 157.538 70.892 157.538 157.538v511.999c0 22.055-17.329 39.385-39.385 39.385zM945.23 802.461h-866.46c-22.055 0-39.385-17.329-39.385-39.385s17.329-39.385 39.385-39.385h866.46c22.055 0 39.385 17.329 39.385 39.385s-17.329 39.385-39.385 39.385zM315.077 881.23h393.845c22.055 0 39.385 17.329 39.385 39.385s-17.329 39.385-39.385 39.385h-393.845c-22.055 0-39.385-17.329-39.385-39.385s17.329-39.385 39.385-39.385z" />
            <glyph unicode="&#xe919;" glyph-name="users" d="M523.52 393.92c69.76 46.080 116.48 124.8 116.48 214.4 0 141.44-114.56 256-256 256s-256-114.56-256-256c0-89.6 46.72-168.32 116.48-214.4-142.72-46.72-244.48-167.040-244.48-329.6 0-17.92 14.080-32 32-32s32 14.080 32 32c0 176.64 143.36 288 320 288s320-111.36 320-288c0-17.92 14.080-32 32-32s32 14.080 32 32c0 162.56-101.76 282.88-244.48 329.6zM384 416.32c-105.6 0-192 86.4-192 192s86.4 192 192 192c105.6 0 192-86.4 192-192s-86.4-192-192-192zM804.48 390.080c73.6 45.44 123.52 125.44 123.52 218.24 0 141.44-114.56 256-256 256-17.92 0-32-14.080-32-32s14.080-32 32-32c105.6 0 192-86.4 192-192 0-71.040-38.4-132.48-96-165.76-56.32-34.56-71.68-83.2 0-109.44 111.36-39.68 192-144 192-269.44 0-17.92 14.080-32 32-32s32 14.080 32 32c0 147.84-90.88 273.92-219.52 326.4z" />
            <glyph unicode="&#xe91a;" glyph-name="complete" d="M948.763 547.355c7.244-31.972 11.194-65.193 11.194-99.356 0-247.421-200.566-448-447.98-448-247.411 0-447.981 200.579-447.981 448 0 247.424 200.57 448.003 447.981 448.003 101.814 0 195.649-34.022 270.883-91.241l42.584 47.91c-86.632 67.212-195.333 107.33-313.468 107.33-282.758 0-511.976-229.23-511.976-512.001s229.218-511.999 511.976-511.999 511.976 229.229 511.976 511.999c0 42.183-5.206 83.135-14.824 122.353l-60.365-22.997zM300.973 579.95l-73.461-78.031 271.047-281.344 73.446 77.965-0.365 0.369 452.361 469.147-73.426 78.029-452.573-469.349z" />
            <glyph unicode="&#xe91b;" glyph-name="bell" d="M646.415 89.45h-59.806c-6.013 0-10.874-4.925-10.874-10.874 0-31.662-32.174-61.022-63.772-61.022s-63.9 29.36-63.9 61.022c0 6.013-4.925 10.874-10.874 10.874h-59.743c-6.013 0-10.874-4.925-10.874-10.874 0-67.609 77.78-142.576 145.454-142.576s145.391 74.965 145.391 142.576c-0.127 6.077-4.925 10.874-11.001 10.874zM994.891 160.834c0.256 1.727 0.576 3.902 0.576 6.14 0 4.285-0.832 8.508-2.559 12.665-9.914 72.983-50.339 138.226-111.297 179.931v156.712c0 146.734-108.546 278.499-245.494 329.99-5.629 63.324-59.87 113.728-124.154 113.728s-118.526-50.275-124.154-113.663c-136.883-51.555-245.429-183.257-245.429-330.054v-156.712c-61.022-41.833-101.383-106.947-111.297-179.866-2.431-6.077-3.134-12.473-1.983-18.806-0.447-5.501-0.576-12.857-0.576-18.486 0-6.013 4.925-10.874 10.874-10.874h945.195c6.013 0 10.874 4.925 10.874 10.874 0.064 5.629-0.192 12.92-0.576 18.422zM111.357 204.202c15.479 50.915 51.107 89.613 99.464 113.663 3.645 1.855 6.077 5.629 6.077 9.787v188.63c0 130.743 102.215 240.312 229.311 270.311 4.925 1.152 8.379 5.564 8.379 10.554v30.895c0 31.15 26.289 57.44 57.504 57.44 31.086 0 57.44-26.289 57.44-57.44v-30.766c-0.064-5.053 3.391-9.402 8.315-10.618 15.224-3.518 29.999-8.315 43.815-14.136 105.028-43.815 185.495-142.512 185.495-256.176v-188.63c0-4.094 2.366-7.868 6.013-9.787 48.356-24.050 83.985-62.748 99.464-113.663h-801.276z" />
            <glyph unicode="&#xe91c;" glyph-name="search" d="M415.657 128.705c-56.104 0-110.544 10.994-161.808 32.673-49.501 20.935-93.95 50.897-132.113 89.057s-68.126 82.608-89.063 132.107c-21.68 51.263-32.673 105.701-32.673 161.803 0 56.108 10.993 110.552 32.673 161.814 20.935 49.5 50.902 93.946 89.064 132.107 38.161 38.157 82.61 68.119 132.113 89.051 51.262 21.675 105.702 32.669 161.806 32.669s110.545-10.991 161.808-32.669c49.503-20.932 93.954-50.895 132.114-89.053 38.163-38.16 68.127-82.607 89.063-132.107 21.679-51.264 32.673-105.705 32.673-161.814 0-56.1-10.994-110.54-32.675-161.803-20.935-49.498-50.899-93.946-89.061-132.107s-82.612-68.126-132.113-89.059c-51.263-21.68-105.703-32.671-161.809-32.671zM415.657 899.406c-195.79 0-355.075-159.278-355.075-355.060s159.285-355.059 355.075-355.059 355.075 159.279 355.075 355.059-159.285 355.060-355.075 355.060zM929.511-63.988c-25.184 0-48.846 9.749-66.649 27.454l-179.268 173.783 42.168 43.495 179.75-174.252c6.382-6.382 14.905-9.896 23.997-9.896 9.088 0 17.606 3.514 23.989 9.893 6.394 6.4 9.923 14.944 9.923 24.048 0 9.086-3.52 17.604-9.908 23.985l-0.345 0.351-173.897 179.381 43.498 42.163 173.743-179.227c17.727-17.803 27.487-41.466 27.487-66.655 0-25.269-9.821-49.017-27.65-66.869-17.836-17.834-41.57-27.651-66.845-27.651zM235.428 364.053c-48.204 48.181-74.744 112.234-74.733 180.358 0.009 68.102 26.548 132.147 74.727 180.343l42.847-42.83c-75.83-75.857-75.833-199.233-0.008-275.029l-42.831-42.844z" />
            <glyph unicode="&#xe91d;" glyph-name="help-solid" d="M512 960c-282.8 0-512-229.2-512-512s229.2-512 512-512 512 229.2 512 512-229.2 512-512 512zM505.5 147.4c-23.9 0-43.3 19.4-43.3 43.3s19.4 43.3 43.3 43.3 43.3-19.4 43.3-43.3-19.4-43.3-43.3-43.3zM691.3 569c-2.5-46.3-16.7-82.8-87.7-153.8-36-36-58.7-63-61-86.7-1.8-18.6-17.5-32.5-35.8-32.5-1.2 0-2.4 0.1-3.6 0.2-19.8 1.9-34.2 19.6-32.3 39.4 4.9 49.9 41.5 90.2 81.8 130.5 64.5 64.5 65.6 85 66.7 106.7 1.3 25.3-8 49.8-26.4 69.1-20.9 22-50.5 34.6-81.2 34.6h-0.2c-59.1-0.1-107.3-48.3-107.3-107.5 0-19.9-16.1-36-36-36s-36 16.1-36 36c0 47.9 18.6 92.9 52.4 126.8s78.8 52.6 126.7 52.7c50.5 0.1 99.3-20.7 133.8-57 32.2-33.7 48.5-77.2 46.1-122.5z" />
            <glyph unicode="&#xe91e;" glyph-name="lock" d="M804.107-63.999h-584.215c-65.724 0-118.466 53.553-118.466 118.466v306.712c0 65.724 53.553 118.466 118.466 118.466h584.215c65.724 0 118.466-53.553 118.466-118.466v-307.524c0-64.913-53.553-117.655-118.466-117.655zM219.083 399.315c-20.285 0-37.325-17.040-37.325-37.325v-307.524c0-20.285 17.040-37.325 37.325-37.325h584.215c20.285 0 37.325 17.040 37.325 37.325v306.712c0 20.285-17.040 37.325-37.325 37.325h-584.215zM197.986 416.355c-22.719 0-40.571 17.851-40.571 40.571v181.756c0 176.887 157.414 321.318 351.34 321.318s351.34-144.431 351.34-321.318c0-22.719-17.851-40.571-40.571-40.571s-40.571 17.851-40.571 40.571c0 132.26-120.9 240.178-270.199 240.178-148.488 0-270.199-107.918-270.199-240.178v-181.756c0-22.719-17.851-40.571-40.571-40.571z" />
            <glyph unicode="&#xe91f;" glyph-name="angle-left" d="M669.567 722.593c9.152-9.216 9.152-24.137 0-33.318l-264.899-241.295 264.899-241.25c9.152-9.198 9.152-24.121 0-33.318-9.381-9.198-24.405-9.198-33.551 0l-281.793 256.75c-4.921 4.903-7.041 11.401-6.569 17.81-0.464 6.428 1.644 12.928 6.569 17.851l281.793 256.75c9.152 9.179 24.167 9.179 33.551 0z" />
            <glyph unicode="&#xe920;" glyph-name="angle-right" d="M354.433 173.407c-9.152 9.216-9.152 24.137 0 33.318l264.899 241.295-264.899 241.25c-9.152 9.198-9.152 24.121 0 33.318 9.381 9.198 24.405 9.198 33.551 0l281.793-256.75c4.921-4.903 7.041-11.401 6.569-17.81 0.464-6.428-1.644-12.928-6.569-17.851l-281.793-256.75c-9.152-9.179-24.167-9.179-33.551 0z" />
            <glyph unicode="&#xe921;" glyph-name="angle-down" d="M226.293 611.945c9.588 9.522 25.113 9.522 34.666 0l251.059-275.619 251.012 275.619c9.572 9.522 25.097 9.522 34.666 0 9.572-9.759 9.572-25.391 0-34.907l-267.14-293.197c-5.103-5.119-11.863-7.327-18.532-6.835-6.688-0.484-13.452 1.71-18.575 6.835l-267.14 293.197c-9.551 9.522-9.551 25.145 0 34.907z" />
            <glyph unicode="&#xe922;" glyph-name="star" d="M1020.209 574.18c-8.864 25.569-31.617 44.289-59.010 48.354l-266.44 39.617-115.812 240.456c-12.192 25.249-38.273 41.409-66.946 41.409s-54.754-16.161-66.946-41.409l-115.812-240.456-266.472-39.617c-27.361-4.064-50.114-22.785-58.946-48.354-8.8-25.633-2.144-53.858 17.185-73.122l195.27-194.95-45.281-270.441c-4.608-27.233 7.2-54.562 30.337-70.498 12.704-8.736 27.649-13.184 42.593-13.184 12.288 0 24.609 3.008 35.777 8.992l232.295 125.060 232.327-125.060c11.168-5.984 23.489-8.992 35.745-8.992 14.944 0 29.889 4.448 42.625 13.184 23.137 15.937 34.881 43.265 30.305 70.498l-45.313 270.441 195.334 194.95c19.297 19.297 25.921 47.522 17.185 73.122zM754.825 356.381c-16.385-16.321-23.809-39.329-20.065-61.89l45.313-270.441-232.327 124.996c-11.136 6.016-23.425 8.992-35.777 8.992-12.288 0-24.609-3.008-35.745-8.992l-232.327-124.996 45.313 270.441c3.776 22.561-3.648 45.569-20.033 61.89l-195.27 194.95 266.44 39.681c24.353 3.616 45.313 18.849 55.778 40.577l115.876 240.392 115.844-240.424c10.496-21.729 31.425-36.929 55.746-40.577l266.505-39.681-195.27-194.918z" />
            <glyph unicode="&#xe923;" glyph-name="star-on" d="M1011.775 506.159c-72.586-88.413-200.937-234.374-200.937-234.374s20.992-160.257 32.758-269.724c5.115-55.754-35.083-79.866-80.605-58.133-86.625 43.516-218.444 110.939-248.096 126.131-30.177-15.040-163.318-81.349-250.84-124.764-46.048-21.681-86.727 2.426-81.552 58.079 11.922 109.306 33.13 269.408 33.13 269.408s-129.825 145.654-203.253 233.954c-25.951 32.069-9.288 77.654 41.882 86.035 104.344 19.728 266.084 51.171 266.084 51.171s88.466 163.055 144.437 262.916c30.805 60.765 52.116 53.75 55.76 51.961 9.494-3.27 24.477-15.087 44.040-52.013 55.335-100.014 142.803-263.285 142.803-263.285s159.838-31.446 262.969-51.223c50.554-8.431 67.063-54.068 41.421-86.137z" />
            <glyph unicode="&#xe924;" glyph-name="close-min" d="M553.597 447.995l223.555 223.555c10.050 10.046 8.89 27.508-2.601 38.99-11.477 11.477-28.942 12.655-38.99 2.601l-223.555-223.555-223.555 223.555c-10.050 10.046-27.509 8.89-38.99-2.601-11.485-11.483-12.661-28.949-2.601-38.99l223.555-223.555-223.555-223.555c-10.046-10.046-8.89-27.512 2.601-38.99 11.474-11.477 28.949-12.645 38.99-2.601l223.555 223.555 223.555-223.555c10.046-10.046 27.517-8.89 38.99 2.601 11.488 11.479 12.648 28.949 2.601 38.992l-223.555 223.555z" />
            <glyph unicode="&#xe926;" glyph-name="setting" d="M935.542 553.663l-70.218-40.884c3.944-21.48 6.514-43.406 6.514-66.040 0-22.632-2.57-44.558-6.514-66.026l70.218-40.88c28.688-16.714 38.522-53.698 21.956-82.622l-59.97-104.734c-16.566-28.926-53.24-38.832-81.928-22.134l-70.942 41.296c-33.16-28.452-70.838-51.706-112.708-66.646v-51.332c0-33.398-26.842-60.476-59.972-60.476h-119.944c-33.13 0-59.97 27.078-59.97 60.476v51.332c-41.888 14.942-79.58 38.196-112.71 66.646l-70.958-41.296c-28.672-16.698-65.36-6.792-81.912 22.134l-59.986 104.734c-16.55 28.924-6.732 65.906 21.954 82.622l70.218 40.88c-3.926 21.466-6.512 43.392-6.512 66.026s2.584 44.558 6.512 66.040l-70.218 40.884c-28.686 16.698-38.504 53.682-21.954 82.604l59.986 104.736c16.55 28.938 53.24 38.844 81.912 22.146l70.958-41.31c33.146 28.452 70.822 51.704 112.71 66.66v51.32c0 33.396 26.84 60.474 59.97 60.474h119.944c33.13 0 59.972-27.078 59.972-60.474v-51.32c41.872-14.956 79.548-38.208 112.708-66.66l70.942 41.31c28.688 16.698 65.362 6.792 81.928-22.146l59.97-104.736c16.564-28.924 6.73-65.906-21.956-82.604zM890.57 632.207l-29.986 52.382c-8.282 14.454-26.634 19.416-40.968 11.074l-83.314-48.514c-42.288 48.102-99.454 82.606-164.326 95.892v66.542c0 16.698-13.436 30.236-30 30.236h-59.972c-16.55 0-29.97-13.54-29.97-30.236v-66.542c-64.888-13.288-122.040-47.79-164.326-95.892l-83.328 48.514c-14.334 8.342-32.688 3.38-40.956-11.074l-29.986-52.382c-8.282-14.454-3.38-32.954 10.97-41.296l83.654-48.706c-9.966-30.076-15.932-62.008-15.932-95.464 0-33.47 5.964-65.388 15.932-95.464l-83.654-48.706c-14.35-8.342-19.252-26.842-10.97-41.296l29.986-52.37c8.268-14.468 26.62-19.428 40.956-11.072l83.314 48.5c42.3-48.102 99.452-82.604 164.34-95.876v-66.558c0-16.698 13.42-30.234 29.97-30.234h59.972c16.564 0 30 13.538 30 30.234v66.558c64.874 13.274 122.040 47.776 164.326 95.876l83.314-48.5c14.334-8.356 32.688-3.396 40.968 11.072l29.986 52.37c8.282 14.456 3.35 32.956-10.97 41.296l-83.652 48.706c9.952 30.076 15.916 61.994 15.916 95.464 0 33.456-5.964 65.39-15.916 95.464l83.652 48.706c14.32 8.342 19.252 26.842 10.97 41.296zM512.004 295.553c-82.812 0-149.946 67.694-149.946 151.186s67.132 151.184 149.946 151.184c82.796 0 149.93-67.694 149.93-151.184 0-83.492-67.134-151.186-149.93-151.186zM512.004 537.449c-49.696 0-89.972-40.614-89.972-90.71 0-50.094 40.278-90.71 89.972-90.71 49.682 0 89.958 40.618 89.958 90.71-0.002 50.096-40.276 90.71-89.958 90.71z" />
            <glyph unicode="&#xe930;" glyph-name="completed" d="M799.5 598.85l-45.35 45.35c-0.52 0.52-1.37 0.52-1.89 0l-301.529-301.529-178.991 178.991c-0.52 0.52-1.37 0.52-1.89 0l-45.35-45.35c-0.52-0.52-0.52-1.37 0-1.89l224.861-224.861c0.184-0.184 0.41-0.299 0.647-0.353 0.524-0.444 1.312-0.426 1.806 0.069l347.686 347.686c0.52 0.519 0.52 1.369 0 1.889zM512 958.718c-282.758 0-511.979-229.221-511.979-511.979s229.221-511.979 511.979-511.979 511.979 229.221 511.979 511.979-229.221 511.979-511.979 511.979zM512-14.041c-254.482 0-460.78 206.299-460.78 460.78s206.299 460.78 460.78 460.78 460.78-206.299 460.78-460.78-206.299-460.78-460.78-460.78z" />
            <glyph unicode="&#xe97f;" glyph-name="loading" d="M384 830.739c0 70.692 57.308 128 128 128s128-57.308 128-128c0-70.692-57.308-128-128-128s-128 57.308-128 128zM790.994 446.739c0 0 0 0 0 0 0 57.993 47.013 105.006 105.006 105.006s105.006-47.013 105.006-105.006c0 0 0 0 0 0 0-57.993-47.013-105.006-105.006-105.006s-105.006 47.013-105.006 105.006zM688.424 175.209c0 52.526 42.58 95.106 95.106 95.106s95.106-42.58 95.106-95.106c0-52.526-42.58-95.106-95.106-95.106s-95.106 42.58-95.106 95.106zM425.862 62.739c0 47.573 38.565 86.138 86.138 86.138s86.138-38.565 86.138-86.138c0-47.573-38.565-86.138-86.138-86.138s-86.138 38.565-86.138 86.138zM162.454 175.209c0 43.088 34.93 78.018 78.018 78.018s78.018-34.93 78.018-78.018c0-43.088-34.93-78.018-78.018-78.018s-78.018 34.93-78.018 78.018zM57.338 446.739c0 39.026 31.636 70.662 70.662 70.662s70.662-31.636 70.662-70.662c0-39.026-31.636-70.662-70.662-70.662s-70.662 31.636-70.662 70.662zM176.472 718.267c0 0 0 0 0 0 0 35.346 28.654 64 64 64s64-28.654 64-64c0 0 0 0 0 0 0-35.346-28.654-64-64-64s-64 28.654-64 64zM899.464 718.267c0-64.024-51.906-115.934-115.936-115.934-64.024 0-115.936 51.91-115.936 115.934 0 64.032 51.912 115.934 115.936 115.934 64.030 0 115.936-51.902 115.936-115.934z" />
            <glyph unicode="&#xe981;" glyph-name="spinner" d="M512-65.261c-136.76 0-265.334 53.258-362.040 149.96-96.702 96.706-149.96 225.28-149.96 362.040 0 96.838 27.182 191.134 78.606 272.692 50 79.296 120.664 143.372 204.356 185.3l43-85.832c-68.038-34.084-125.492-86.186-166.15-150.67-41.746-66.208-63.812-142.798-63.812-221.49 0-229.382 186.618-416 416-416s416 186.618 416 416c0 78.692-22.066 155.282-63.81 221.49-40.66 64.484-98.114 116.584-166.15 150.67l43 85.832c83.692-41.928 154.358-106.004 204.356-185.3 51.422-81.558 78.604-175.854 78.604-272.692 0-136.76-53.258-265.334-149.96-362.040-96.706-96.702-225.28-149.96-362.040-149.96z" />
        </font>
</defs>
</svg>
